<svg xmlns="http://www.w3.org/2000/svg" viewBox="0 0 99.21 38.68"><rect x="-9.57" y="-9.55" width="124.37" height="76.53" style="fill:none"/><path d="M28.82,35a3.63,3.63,0,0,0,3.84-4V19.15H38v12.1c-.05,5.33-4.32,7.43-9.14,7.43s-9.1-2.1-9.15-7.43V19.15H25V31A3.64,3.64,0,0,0,28.82,35Z" style="fill:#009fe3"/><polygon points="5.94 38.28 11.24 38.28 11.24 22.86 17.18 22.86 17.18 19.15 0 19.15 0 22.86 5.94 22.86 5.94 38.28"/><path d="M18.67,9.83c-1.29.41-2.63.08-2.62-1.65,0-2.63,6.19-4.84,7.05-7.15.21-.57.23-1-.05-1s0,.3-.48.73C20,3.3,15.71,3.29,12.42,4.77c-2.17,1-8.5,4-7,10.6.07.32.25,1.38.45,1.38s.22-.63.21-1.4c0-4,4.65-5.06,6.17-7.65.18-.31.5-.74.57-.54a1,1,0,0,1,0,.52c-.48,2.12-2.71,3.49-2.08,5,.82,2,3.18.5,3.9-.77.2-.35.3-.57.43-.53s.1.44,0,.8c-.39,2.29-.92,3.57-2.59,4.87-.54.42-1.38.51-1.27.83,0,.08.39.07.68,0C16.31,17.65,20,12.39,21,9c.1-.24.13-.47,0-.56s-.33.14-.52.31A5.54,5.54,0,0,1,18.67,9.83Z"/><path d="M63.94,30.35c0-2.07,1.27-4,3.37-4,2.44,0,3.39,1.68,3.39,4Zm9.41,1.75V30.86c0-3.69-2.08-6.29-5.86-6.29-4.21,0-6.17,3.27-6.17,7.16s1.69,7,6,7c3.18,0,5.51-1.51,5.91-4.53H70.54c-.29,1.93-1.27,2.7-3.23,2.7-2.57,0-3.43-2.29-3.43-4.75Z"/><rect x="76.41" y="19.15" width="2.52" height="19.13"/><path d="M86.82,38.28V26.73h3.07V25H86.82V22.83c0-1.54.74-1.8,2.18-1.8.42,0,.84,0,1.27.08V19a8.41,8.41,0,0,0-1.81-.26c-2.38,0-4.16,1.19-4.16,3.74V25H81.71v1.75H84.3V38.28Z"/><path d="M91.34,25v1.75h2.28v8.48c0,1.77,0,3.47,3.77,3.47a10.1,10.1,0,0,0,1.72-.16V36.59a6.78,6.78,0,0,1-1.33.15c-.9,0-1.64-.45-1.64-1.4V26.73h3.07V25H96.14V21.35l-2.52.79V25Z"/><path d="M43.27,38.28h6.57c8.18,0,9-6.93,9-9.56s-.86-9.57-9-9.57H43.27Zm2.65-16.86h3.92c4.42,0,6.26,3.34,6.26,7.3S54.26,36,49.84,36H45.92Z"/></svg>