<svg xmlns="http://www.w3.org/2000/svg" viewBox="0 0 406.2 258.2"><polyline points="71.2 140 403.7 140 400.1 136.3 70.7 136.3" style="fill:#fff;stroke:#fff;stroke-miterlimit:10"/><path d="M70.7,136.3a66.19,66.19,0,1,1,61.7-42.2h3.9a63.18,63.18,0,0,0,4.6-23.9,69.7,69.7,0,1,0-69.7,69.7" style="fill:#fff;stroke:#fff;stroke-miterlimit:10"/><polygon points="406.2 136.3 169.4 136.3 169.4 32.9 406.2 32.9 406.2 136.3" style="fill:none"/><g style="isolation:isolate"><path d="M228.75,105.82H191.61c-4,9.47-9.18,21.9-12.43,30.49H163L204.63,31.38h11l41.59,104.93h-16ZM197.23,91.76H223L210.25,55.21Z" style="fill:#fff"/><path d="M315.18,47.66H296v73.7h19.23v15H261.76v-15H281V47.66H261.76V32.86h53.42Z" style="fill:#fff"/><path d="M343,83.77h17.46c12.58,0,18.8-9,18.8-18.06,0-8.88-6.22-17.9-18.8-17.9H337.53v88.5h-14.8V32.71h37.74c22.5,0,33.75,16.58,33.75,33,0,14.66-9,28.57-26.79,31.68l32.71,38.92H380.75L343,90.87Z" style="fill:#fff"/></g><g style="isolation:isolate"><path d="M228.75,105.82H191.61c-4,9.47-9.18,21.9-12.43,30.49H163L204.63,31.38h11l41.59,104.93h-16ZM197.23,91.76H223L210.25,55.21Z" style="fill:none;stroke:#fff;stroke-miterlimit:10"/><path d="M315.18,47.66H296v73.7h19.23v15H261.76v-15H281V47.66H261.76V32.86h53.42Z" style="fill:none;stroke:#fff;stroke-miterlimit:10"/><path d="M343,83.77h17.46c12.58,0,18.8-9,18.8-18.06,0-8.88-6.22-17.9-18.8-17.9H337.53v88.5h-14.8V32.71h37.74c22.5,0,33.75,16.58,33.75,33,0,14.66-9,28.57-26.79,31.68l32.71,38.92H380.75L343,90.87Z" style="fill:none;stroke:#fff;stroke-miterlimit:10"/></g><path d="M237.3,136.3H334" style="fill:#fff;stroke:#fff;stroke-miterlimit:10"/><polyline points="182.7 167.3 403.7 167.3 403.7 170.5 181.4 170.5" style="fill:#fff;stroke:#fff;stroke-miterlimit:10"/><path d="M224.7,212.5h3.5a45.1,45.1,0,1,1-45.1-45.2l.2,3.2a41.7,41.7,0,1,0,41.6,41.7" style="fill:#fff;stroke:#fff;stroke-miterlimit:10"/></svg>