<svg xmlns="http://www.w3.org/2000/svg" viewBox="0 0 406.2 257.2"><path fill="#4d648d" d="M71.2 139.5h332.5l-3.6-3.7H70.7"/><path fill="#4d648d" d="M70.7 135.8a66.19 66.19 0 1161.7-42.2h3.9a63.18 63.18 0 004.6-23.9 69.7 69.7 0 10-69.7 69.7"/><path fill="none" d="M406.2 135.8H169.4V32.4h236.8v103.4z"/><g style="isolation:isolate" fill="#263655"><path d="M228.75 105.32h-37.14c-4 9.47-9.18 21.9-12.43 30.49H163l41.63-104.93h11l41.59 104.93h-16zm-31.52-14.06H223l-12.75-36.55zM315.18 47.16H296v73.7h19.23v15h-53.47v-15H281v-73.7h-19.24v-14.8h53.42zM343 83.27h17.46c12.58 0 18.8-9 18.8-18.06 0-8.88-6.22-17.9-18.8-17.9h-22.93v88.5h-14.8V32.21h37.74c22.5 0 33.75 16.58 33.75 33 0 14.66-9 28.57-26.79 31.68l32.71 38.92h-19.39L343 90.37z"/></g><path fill="#4d648d" d="M182.7 166.8h221v3.2H181.4"/><path fill="#4d648d" d="M224.7 212h3.5a45.1 45.1 0 11-45.1-45.2l.2 3.2a41.7 41.7 0 1041.6 41.7"/></svg>