<svg xmlns="http://www.w3.org/2000/svg" viewBox="0 0 584.87 223">
    <g style="isolation:isolate" fill="#4e658e">
        <path d="M414 152.76h1.13l5.68 13.67h-1.42l-1.77-4.28h-6.14l-1.76 4.28h-1.44zm3.31 8.34l-2.75-6.76-2.8 6.76zM425.67 166.62a6.89 6.89 0 01-2.29-.39 5.3 5.3 0 01-1.92-1.11l.59-.89a6.58 6.58 0 001.73 1 5 5 0 001.87.35 3.38 3.38 0 001.94-.49 1.59 1.59 0 00.72-1.4 1.28 1.28 0 00-.19-.7 1.64 1.64 0 00-.57-.49 4.7 4.7 0 00-.94-.38q-.57-.16-1.32-.33c-.58-.14-1.08-.29-1.5-.43a4.31 4.31 0 01-1.05-.48 1.69 1.69 0 01-.62-.66 2.13 2.13 0 01-.2-1 2.83 2.83 0 01.3-1.33 2.76 2.76 0 01.8-1 3.69 3.69 0 011.2-.56 5.24 5.24 0 011.45-.19 5.65 5.65 0 012.1.37 4.1 4.1 0 011.52 1l-.63.77a3.63 3.63 0 00-1.36-.86 4.7 4.7 0 00-1.67-.29 4.16 4.16 0 00-1 .1 2.5 2.5 0 00-.78.34 1.64 1.64 0 00-.72 1.42 1.41 1.41 0 00.13.66 1.1 1.1 0 00.45.43 3.65 3.65 0 00.78.33l1.14.3c.64.15 1.21.31 1.7.46a5.13 5.13 0 011.22.54 2 2 0 01.74.75 2.11 2.11 0 01.25 1.08 2.6 2.6 0 01-1.06 2.19 4.57 4.57 0 01-2.81.89zM435.05 166.62a6.84 6.84 0 01-2.29-.39 5.34 5.34 0 01-1.93-1.11l.6-.89a6.53 6.53 0 001.72 1 5.07 5.07 0 001.88.35 3.35 3.35 0 001.93-.49 1.59 1.59 0 00.72-1.4 1.2 1.2 0 00-.19-.7 1.64 1.64 0 00-.57-.49 4.46 4.46 0 00-.94-.38q-.57-.16-1.32-.33c-.58-.14-1.08-.29-1.5-.43a4.69 4.69 0 01-1.05-.48 1.77 1.77 0 01-.62-.66 2.27 2.27 0 01-.2-1 2.83 2.83 0 01.3-1.33 2.79 2.79 0 01.81-1 3.74 3.74 0 011.19-.56 5.31 5.31 0 011.46-.19 5.56 5.56 0 012.09.37 4.22 4.22 0 011.53 1l-.64.77a3.48 3.48 0 00-1.36-.86 4.68 4.68 0 00-1.66-.29 4.25 4.25 0 00-1 .1 2.34 2.34 0 00-.77.34 1.5 1.5 0 00-.53.59 1.67 1.67 0 00-.2.83 1.4 1.4 0 00.14.66 1.14 1.14 0 00.44.43 4.15 4.15 0 00.78.33l1.15.3c.64.15 1.2.31 1.69.46a5 5 0 011.22.54 2 2 0 01.74.75 2.11 2.11 0 01.25 1.08 2.6 2.6 0 01-1.06 2.19 4.54 4.54 0 01-2.81.89zM441.09 154.3v-1.93h1.31v1.93zm0 12.13v-10h1.31v10zM448.62 166.62a6.84 6.84 0 01-2.29-.39 5.34 5.34 0 01-1.93-1.11l.6-.89a6.53 6.53 0 001.72 1 5.07 5.07 0 001.88.35 3.35 3.35 0 001.93-.49 1.59 1.59 0 00.72-1.4 1.2 1.2 0 00-.19-.7 1.64 1.64 0 00-.57-.49 4.46 4.46 0 00-.94-.38q-.57-.16-1.32-.33c-.58-.14-1.08-.29-1.5-.43a4.69 4.69 0 01-1.05-.48 1.74 1.74 0 01-.61-.66 2.13 2.13 0 01-.21-1 2.83 2.83 0 01.3-1.33 2.79 2.79 0 01.81-1 3.74 3.74 0 011.19-.56 5.31 5.31 0 011.46-.19 5.56 5.56 0 012.09.37 4.22 4.22 0 011.53 1l-.64.77a3.48 3.48 0 00-1.36-.86 4.64 4.64 0 00-1.66-.29 4.1 4.1 0 00-1 .1 2.31 2.31 0 00-.78.34 1.58 1.58 0 00-.53.59 1.67 1.67 0 00-.19.83 1.41 1.41 0 00.13.66 1.14 1.14 0 00.44.43 4.15 4.15 0 00.78.33l1.15.3c.64.15 1.2.31 1.69.46a4.79 4.79 0 011.22.54 2.07 2.07 0 01.75.75 2.21 2.21 0 01.25 1.08 2.63 2.63 0 01-1.06 2.19 4.59 4.59 0 01-2.81.89zM459.47 166l-.33.15c-.15.06-.32.13-.51.19a6.83 6.83 0 01-.66.18 3.8 3.8 0 01-.77.07 3.1 3.1 0 01-.81-.11 2 2 0 01-.67-.36 1.67 1.67 0 01-.46-.61 1.86 1.86 0 01-.18-.84v-7.18h-1.38v-1h1.38V153h1.31v3.39h2.31v1h-2.31v6.81a1.05 1.05 0 00.4.82 1.38 1.38 0 00.82.26 2.48 2.48 0 001-.18c.28-.13.46-.21.54-.26zM466.29 166.43v-13.67h1.35v13.67zM479.22 166.43h-1.3v-5.6a4.91 4.91 0 00-.53-2.6 1.82 1.82 0 00-1.63-.81 3.39 3.39 0 00-1.16.21 3.72 3.72 0 00-1.06.6 4.48 4.48 0 00-.88.91 3.61 3.61 0 00-.56 1.15v6.14h-1.31v-10H472v2.27a4.67 4.67 0 011.76-1.77 4.79 4.79 0 012.49-.67 3.06 3.06 0 011.41.3 2.48 2.48 0 01.92.87 4 4 0 01.5 1.37 9.81 9.81 0 01.15 1.79zM487.19 166.43v-13.67H493a3.52 3.52 0 011.62.38 4.16 4.16 0 011.29 1 4.65 4.65 0 01.83 1.37 4.32 4.32 0 01.3 1.56 4.61 4.61 0 01-.22 1.44 4.44 4.44 0 01-.62 1.23 3.78 3.78 0 01-.95.92 3.37 3.37 0 01-1.25.51l3.35 5.28h-1.55l-3.22-5.05h-4v5.05zm1.35-6.24H493a2.3 2.3 0 001.08-.26 2.58 2.58 0 00.84-.7 3.49 3.49 0 00.73-2.18 3.17 3.17 0 00-.22-1.18 3.25 3.25 0 00-.59-1 3.1 3.1 0 00-.89-.68 2.51 2.51 0 00-1.07-.25h-4.35zM503.54 166.62a4.93 4.93 0 01-2-.41 5.11 5.11 0 01-1.58-1.14 5.25 5.25 0 01-1.05-1.67 5.38 5.38 0 01-.38-2 5.3 5.3 0 01.38-2 4.94 4.94 0 011-1.63 5 5 0 015.6-1.12 4.67 4.67 0 011.57 1.13 5.22 5.22 0 011.38 3.59v.31a.53.53 0 010 .21h-8.58a4.1 4.1 0 001.19 2.68 3.9 3.9 0 001.15.78 3.36 3.36 0 001.37.28 3.61 3.61 0 001-.14 4.06 4.06 0 00.88-.36 3.41 3.41 0 00.73-.57 2.25 2.25 0 00.5-.74l1.14.31a3.29 3.29 0 01-.65 1 5.13 5.13 0 01-1 .79 5.23 5.23 0 01-1.23.52 5.43 5.43 0 01-1.42.18zm3.69-5.74a4.08 4.08 0 00-.37-1.47 4.12 4.12 0 00-.81-1.14 3.54 3.54 0 00-2.51-1 3.62 3.62 0 00-1.39.27 3.44 3.44 0 00-1.15.76 3.6 3.6 0 00-.78 1.15 4.41 4.41 0 00-.36 1.46zM513.83 166.62a6.93 6.93 0 01-2.29-.39 5.38 5.38 0 01-1.92-1.11l.6-.89a6.53 6.53 0 001.72 1 5.07 5.07 0 001.88.35 3.37 3.37 0 001.93-.49 1.59 1.59 0 00.72-1.4 1.2 1.2 0 00-.19-.7 1.64 1.64 0 00-.57-.49 4.46 4.46 0 00-.94-.38q-.57-.16-1.32-.33c-.58-.14-1.08-.29-1.5-.43a4.69 4.69 0 01-1.05-.48 1.77 1.77 0 01-.62-.66 2.27 2.27 0 01-.2-1 2.83 2.83 0 01.3-1.33 2.79 2.79 0 01.81-1 3.74 3.74 0 011.19-.56 5.29 5.29 0 011.45-.19 5.61 5.61 0 012.1.37 4.1 4.1 0 011.52 1l-.63.77a3.55 3.55 0 00-1.36-.86 4.68 4.68 0 00-1.66-.29 4.25 4.25 0 00-1 .1 2.5 2.5 0 00-.78.34 1.56 1.56 0 00-.52.59 1.67 1.67 0 00-.2.83 1.4 1.4 0 00.14.66 1.14 1.14 0 00.44.43 4.15 4.15 0 00.78.33l1.14.3c.65.15 1.21.31 1.7.46a5 5 0 011.22.54 2 2 0 01.74.75 2.11 2.11 0 01.25 1.08 2.6 2.6 0 01-1.06 2.19 4.55 4.55 0 01-2.82.89zM525 166.62a4 4 0 01-2.24-.64 5.19 5.19 0 01-1.57-1.63v6.18h-1.31V156.4h1.17v1.94a4.88 4.88 0 011.6-1.53 4.32 4.32 0 014-.15 5 5 0 011.51 1.15 5.47 5.47 0 011 1.67 5.63 5.63 0 01.35 1.94 6 6 0 01-.33 2 4.92 4.92 0 01-.93 1.66 4.55 4.55 0 01-1.44 1.13 4.17 4.17 0 01-1.81.41zm-.37-1.16a3.19 3.19 0 001.48-.34 3.6 3.6 0 001.13-.92 3.71 3.71 0 00.72-1.29 4.4 4.4 0 00.25-1.49 4.21 4.21 0 00-.28-1.54 4.71 4.71 0 00-.79-1.29 3.84 3.84 0 00-1.19-.88 3.3 3.3 0 00-1.47-.33 3.18 3.18 0 00-1.05.2 4.51 4.51 0 00-1 .54 4 4 0 00-.81.79 2.15 2.15 0 00-.41 1v3.08a4.18 4.18 0 00.59 1 3.79 3.79 0 00.8.8 3.72 3.72 0 001 .53 3 3 0 001.03.14zM531.76 154.3v-1.93h1.31v1.93zm0 12.13v-10h1.31v10zM541 157.55a4.14 4.14 0 00-2.31.73 3.7 3.7 0 00-1.39 1.91v6.24H536v-10h1.23v2.4a4.66 4.66 0 011.51-1.81 3.49 3.49 0 012-.65h.25zM545.1 166.62a3.52 3.52 0 01-1.32-.24 3.28 3.28 0 01-1.06-.66 3 3 0 01-.7-1 2.9 2.9 0 01-.25-1.22 2.49 2.49 0 01.3-1.21 3 3 0 01.87-1 4.31 4.31 0 011.33-.63 6 6 0 011.69-.22 9.12 9.12 0 011.56.13 6.54 6.54 0 011.41.39v-.91a2.9 2.9 0 00-.75-2.1 2.76 2.76 0 00-2.08-.78 4.51 4.51 0 00-1.58.3 8 8 0 00-1.64.89l-.46-.87a6.78 6.78 0 013.77-1.3 4.08 4.08 0 013 1.05 3.93 3.93 0 011.08 2.93v4.52q0 .54.48.54v1.16a2.84 2.84 0 01-.5 0 1.09 1.09 0 01-.78-.25.89.89 0 01-.3-.69v-.79a4.46 4.46 0 01-1.74 1.39 5.36 5.36 0 01-2.33.57zm.3-1a4.49 4.49 0 001.88-.39 3 3 0 001.3-1 1.14 1.14 0 00.26-.37 1 1 0 00.09-.38v-1.63a7.85 7.85 0 00-1.36-.39 7.61 7.61 0 00-1.43-.13 4 4 0 00-2.26.57 1.78 1.78 0 00-.86 1.52 2.12 2.12 0 00.18.87 2.19 2.19 0 00.5.7 2.46 2.46 0 00.76.48 2.7 2.7 0 00.94.15zM557.8 166l-.34.15c-.14.06-.31.13-.5.19s-.42.12-.66.18a3.8 3.8 0 01-.77.07 3.1 3.1 0 01-.81-.11 1.88 1.88 0 01-.67-.36 1.67 1.67 0 01-.46-.61 1.86 1.86 0 01-.18-.84v-7.18H552v-1h1.38V153h1.31v3.39H557v1h-2.31v6.81a1.05 1.05 0 00.4.82 1.35 1.35 0 00.81.26 2.53 2.53 0 001-.18c.28-.13.46-.21.54-.26zM559.44 154.3v-1.93h1.31v1.93zm0 12.13v-10h1.31v10zM567.91 166.62a4.83 4.83 0 01-2-.41 5 5 0 01-2.6-2.79 5.28 5.28 0 01-.37-2 5.39 5.39 0 01.38-2 5.18 5.18 0 011-1.66 5 5 0 011.56-1.13 4.92 4.92 0 014 0 5 5 0 011.58 1.13 5.33 5.33 0 011.41 3.66 5.48 5.48 0 01-.36 2 5.33 5.33 0 01-1 1.66 5.13 5.13 0 01-1.58 1.13 4.91 4.91 0 01-2.02.41zm-3.64-5.16a4.22 4.22 0 001.07 2.84 3.58 3.58 0 001.15.86 3.45 3.45 0 001.42.3 3.23 3.23 0 001.41-.31 3.69 3.69 0 001.17-.87 4.25 4.25 0 00.79-1.28 4.3 4.3 0 00.28-1.58 4.37 4.37 0 00-.28-1.57 4.43 4.43 0 00-.79-1.29 3.81 3.81 0 00-1.17-.86 3.27 3.27 0 00-2.82 0 3.72 3.72 0 00-1.15.87 4.2 4.2 0 00-.79 1.3 4.44 4.44 0 00-.29 1.59zM583.52 166.43h-1.31v-5.6a4.91 4.91 0 00-.53-2.6 1.8 1.8 0 00-1.63-.81 3.33 3.33 0 00-1.15.21 3.77 3.77 0 00-1.07.6 4.19 4.19 0 00-.87.91 3.41 3.41 0 00-.56 1.15v6.14h-1.31v-10h1.19v2.27a4.74 4.74 0 011.72-1.8 4.86 4.86 0 012.5-.67 3 3 0 011.4.3 2.41 2.41 0 01.92.87 4 4 0 01.51 1.37 9.81 9.81 0 01.15 1.79z"/>
    </g>
    <path fill="#4e658e" d="M159.2 144.7h421v2.9H158"/>
    <path d="M195.6 183.9h3a39 39 0 11-39-39.1l.2 2.8a36.1 36.1 0 1036 36.1" fill="#4e658e"/>
    <path fill="none" d="M121.5 71.1h287.3v48.3H121.5z"/>
    <g style="isolation:isolate" fill="#4e658e">
        <path d="M143.49 118.85a13.28 13.28 0 01-7.51-2.16 17.31 17.31 0 01-5.26-5.45v20.7h-4.38V84.6h3.93v6.51a16.34 16.34 0 015.36-5.11 13.7 13.7 0 017.16-2 14 14 0 016.38 1.45 16.14 16.14 0 015 3.87 17.78 17.78 0 013.32 5.58 18.18 18.18 0 011.2 6.51 20.35 20.35 0 01-1.1 6.71 17 17 0 01-3.13 5.55 15 15 0 01-4.84 3.77 13.76 13.76 0 01-6.13 1.41zm-1.22-3.85a10.51 10.51 0 004.93-1.16 12.37 12.37 0 003.81-3.07 13.88 13.88 0 002.42-4.32 15.13 15.13 0 00.84-5 14 14 0 00-1-5.16 14.4 14.4 0 00-2.62-4.29 12.46 12.46 0 00-4-3 11.3 11.3 0 00-4.94-1.09 10.12 10.12 0 00-3.51.67 14.35 14.35 0 00-3.42 1.81 12.14 12.14 0 00-2.67 2.61 7.26 7.26 0 00-1.39 3.2v10.32a15.43 15.43 0 002 3.35 14 14 0 002.71 2.68 13.07 13.07 0 003.26 1.77 10.3 10.3 0 003.58.68zM180.65 118.85a16.19 16.19 0 01-6.74-1.39 16.36 16.36 0 01-5.33-3.81 17.71 17.71 0 01-3.51-5.58 18.07 18.07 0 01-1.26-6.77 17.67 17.67 0 011.26-6.67 17.35 17.35 0 013.48-5.49 16.87 16.87 0 015.32-3.74 16.35 16.35 0 0118.71 3.78 17.6 17.6 0 013.42 5.48 17.85 17.85 0 011.22 6.58v1a2.81 2.81 0 01-.06.71h-28.77a14.16 14.16 0 001.26 5 13.65 13.65 0 002.74 4 12.42 12.42 0 003.84 2.62 11.51 11.51 0 004.61.93 11.91 11.91 0 003.22-.45 13.13 13.13 0 003-1.22 11 11 0 002.45-1.91 8.25 8.25 0 001.68-2.48l3.8 1a11 11 0 01-2.19 3.39 15 15 0 01-3.29 2.64 15.55 15.55 0 01-4.13 1.74 17.77 17.77 0 01-4.73.64zM193 99.62a13.51 13.51 0 00-4-8.77 12 12 0 00-8.41-3.42 12.12 12.12 0 00-4.65.91 12 12 0 00-3.84 2.51 12.64 12.64 0 00-2.64 3.87 14.62 14.62 0 00-1.19 4.9zM220.76 88.47a13.77 13.77 0 00-7.76 2.45 12.34 12.34 0 00-4.64 6.38v20.9H204V84.6h4.13v8.06a15.34 15.34 0 015-6.06 11.64 11.64 0 016.78-2.2 4.5 4.5 0 01.83.07zM234.63 118.85a11.86 11.86 0 01-4.42-.81 11.15 11.15 0 01-3.54-2.23 10 10 0 01-3.2-7.41 8.3 8.3 0 011-4.07 9.73 9.73 0 012.9-3.22 14.33 14.33 0 014.45-2.1 20.64 20.64 0 015.67-.74 31.14 31.14 0 015.23.45 22.66 22.66 0 014.71 1.29V97a9.73 9.73 0 00-2.43-7.08 9.21 9.21 0 00-7-2.61 14.74 14.74 0 00-5.29 1 25.53 25.53 0 00-5.49 3l-1.54-2.9q6.5-4.41 12.63-4.41 6.31 0 9.93 3.54t3.61 9.81v15.16q0 1.8 1.62 1.8v3.87a10.35 10.35 0 01-1.68.19 3.75 3.75 0 01-2.61-.83 3.14 3.14 0 01-1-2.33l-.13-2.64a15.24 15.24 0 01-5.84 4.64 17.88 17.88 0 01-7.58 1.64zm1-3.36a15.15 15.15 0 006.37-1.29 10.25 10.25 0 004.36-3.42 4.15 4.15 0 00.87-1.25 3.31 3.31 0 00.29-1.26v-5.48a26.66 26.66 0 00-4.55-1.29 25.52 25.52 0 00-4.8-.46 13.36 13.36 0 00-7.55 1.94 5.87 5.87 0 00-2.9 5.09 7 7 0 00.61 2.91 7.32 7.32 0 001.68 2.35 7.8 7.8 0 002.54 1.58 8.57 8.57 0 003.11.58zM277.2 116.59c-.26.13-.63.3-1.13.51a16.8 16.8 0 01-1.71.65 18.09 18.09 0 01-2.19.58 12.68 12.68 0 01-2.58.26 9.35 9.35 0 01-2.71-.39 6.36 6.36 0 01-2.26-1.19 5.91 5.91 0 01-1.54-2 6.55 6.55 0 01-.58-2.84V88.08h-4.65V84.6h4.65V73.25h4.38V84.6h7.74v3.48h-7.74v22.83a3.5 3.5 0 001.32 2.74 4.55 4.55 0 002.75.87 8.25 8.25 0 003.29-.61A15.5 15.5 0 00276 113zM282.68 77.57v-6.45h4.39v6.45zm0 40.63V84.6h4.39v33.6zM311.06 118.85a16 16 0 01-6.7-1.39 16.3 16.3 0 01-5.26-3.77 17 17 0 01-3.45-5.55 18.16 18.16 0 01-1.23-6.64 17.91 17.91 0 011.26-6.71 17.63 17.63 0 013.48-5.55 16.92 16.92 0 015.26-3.8 15.39 15.39 0 016.64-1.44 15.63 15.63 0 016.68 1.42 16.82 16.82 0 015.29 3.8 17.63 17.63 0 013.48 5.55 17.91 17.91 0 011.26 6.71 18.16 18.16 0 01-1.23 6.64 16.87 16.87 0 01-3.45 5.55 16.2 16.2 0 01-12 5.16zm-12.19-17.29a14.18 14.18 0 001 5.26 14.42 14.42 0 002.61 4.25 11.71 11.71 0 003.87 2.87 11.15 11.15 0 004.74 1 10.82 10.82 0 004.74-1.07 12.5 12.5 0 003.91-2.9 14 14 0 002.64-4.29 14.83 14.83 0 000-10.55 13.89 13.89 0 00-2.64-4.32A12.66 12.66 0 00315.8 89a10.81 10.81 0 00-4.74-1.06 10.61 10.61 0 00-4.7 1.06 12.55 12.55 0 00-3.88 2.93 14.4 14.4 0 00-2.64 4.36 14.61 14.61 0 00-.97 5.27zM363.37 118.2H359V99.43c0-4-.6-6.9-1.78-8.71a6.06 6.06 0 00-5.45-2.7 11.23 11.23 0 00-3.87.7 13.29 13.29 0 00-3.58 2 15.57 15.57 0 00-2.93 3.07 11.81 11.81 0 00-1.87 3.84v20.57h-4.39V84.6h4v7.61a15.86 15.86 0 015.9-5.94 16.23 16.23 0 018.35-2.27 9.86 9.86 0 014.7 1 8 8 0 013.1 2.9 13.58 13.58 0 011.68 4.58 32.59 32.59 0 01.51 6z"/>
    </g>
    <path fill="#4e658e" d="M61.2 121.1h519l-2-3.3H60.7"/>
    <path d="M60.6 117.9a57.4 57.4 0 1153.6-36.6h3.4a54.9 54.9 0 004-20.7A60.55 60.55 0 1061 121" fill="#4e658e"/>
    <g style="isolation:isolate" fill="#263655">
        <path d="M427.64 91.22H395c-3.51 8.32-8.07 19.25-10.93 26.79h-14.19l36.56-92.22h9.62L452.62 118h-14.05zm-27.71-12.36h22.64l-11.19-32.13zM503.61 40.09h-16.92v64.78h16.92V118h-47v-13.13h16.91V40.09h-16.87v-13h47zM528.06 71.83h15.35c11.06 0 16.52-7.93 16.52-15.87s-5.46-15.73-16.52-15.73h-20.16V118h-13V27h33.17c19.77 0 29.66 14.57 29.66 29 0 12.88-7.94 25.11-23.55 27.84L578.27 118h-17l-33.21-39.92z"/>
    </g>
</svg>
