<svg xmlns="http://www.w3.org/2000/svg" xmlns:xlink="http://www.w3.org/1999/xlink" id="Layer_2" x="0" y="0" version="1.1" viewBox="0 0 256 64" xml:space="preserve" style="enable-background:new 0 0 256 64"><style type="text/css">.st0{fill:#003c7d}</style><g id="beeldmerk"><path d="M49.2,58.7c-7.1,0-10.7-3.5-10.7-10.4c0-6.5,4.2-10.8,10.6-10.8c3.1,0,4.4,0.5,5.4,0.9l0.4,0.1v4.4h-1.4 c-0.7-1.9-1.7-3.5-4.6-3.5c-4.8,0-7.6,3.1-7.6,8.4s3,8.4,8.2,8.4c2.5,0,3.8-0.9,4.7-1.1l0.7,1.7C55,56.9,52.8,58.7,49.2,58.7z" class="st0"/><path d="M23.8,26.3H8.1C8,25.9,8,25.2,8,24.8l2-0.5c0.7-0.1,1.2-0.9,1.2-1.7l0.1-4.3V9.2c0-0.7-0.3-1.6-0.9-1.9l-2-0.5 c0-0.3,0-0.9,0.1-1.2h7.7c0.1,0.4,0.1,0.9,0.1,1.3l-1.4,0.4c-0.9,0-1.2,0.1-1.2,1.1v9.9l0.1,6l5.5-0.1c1.8,0,3-1.3,3.5-2.9l1.3,0.3 L23.8,26.3z" class="st0"/><path d="M32,0v32h32V0H32z M57.1,7.5c-0.4,0.1-0.7,0.3-0.7,1.2v9.9c0,6-4.4,8.1-8.1,8.1c-3.9,0-8.1-1.5-8.1-7.3V8.9 c0-0.7-0.3-1.3-0.9-1.5l-1.8-0.7c0-0.3,0-0.8,0.1-1.2h7.8c0.1,0.4,0.1,0.9,0,1.3l-1.7,0.4c-0.5,0.1-0.7,0.4-0.7,0.9v10.7 c0,4.1,2.9,5.5,5.4,5.5c3.1,0,5.2-1.6,5.2-6.3V9.2c0-0.9-0.3-1.6-1.6-2l-1.3-0.4c0-0.3,0-0.8,0-1.2h7.6c0.1,0.4,0.1,0.8,0.1,1.2 L57.1,7.5z" class="st0"/><path d="M0,32v32h32V32H0z M27.4,58h-6.8c0-0.4-0.1-0.9-0.1-1.2l1.2-0.4c0.9-0.3,1-1.1,1-2c0-0.4,0-0.7-0.1-1.1 l-0.3-9.5l-0.1-1.5H22l-5.7,12h-1.8L9.4,42.1h0.1v1.5l-1,11.3c-0.1,0.5,0,0.8,0.3,0.9l2.6,0.8c0,0.3,0,1.1-0.1,1.3h-7 c0-0.4-0.1-0.8,0-1.2l1-0.5c0.7-0.4,1.3-1.3,1.4-2.1l1.3-12.7c0.1-0.7-0.3-1.3-0.7-1.6l-1.7-0.5c0-0.3,0-0.8,0.1-1.2h5.2l5,12.7 h0.3l5.7-12.7h5c0.1,0.4,0.1,0.7,0.1,1.1l-1.3,0.5c-0.5,0.3-1.2,0.9-1,2.3l1,12.8c0.1,0.7,0.5,1.2,1,1.5l1.2,0.7 C27.6,56.9,27.6,57.7,27.4,58z" class="st0"/></g><g id="woordmerk"><g><path d="M177.5,52.3c-4.8,0-7.2-2.4-7.2-6.9c0-4.4,2.8-7.2,7.1-7.2c2.1,0,2.9,0.4,3.6,0.7l0.3,0.1v2.9h-0.9 c-0.4-1.2-1.1-2.4-3.1-2.4c-3.2,0-5.1,2-5.1,5.6s2,5.6,5.5,5.6c1.6,0,2.5-0.5,3.1-0.7l0.5,1.2C181.5,51.2,179.9,52.3,177.5,52.3z" class="st0"/><path d="M103.9,46.9c0.1,3.5,1.7,3.9,3.9,3.9c0.8,0,1.9-0.1,2.7-0.3l0.3,1.1c-0.7,0.4-2.1,0.8-3.5,0.8 c-3.3,0-5.2-0.9-5.2-5.3c0-3.2,1.9-5.7,4.8-5.7s4,2,4,5.1V47L103.9,46.9L103.9,46.9z M106.8,42.4c-1.5,0-2.7,1.2-2.9,3.5h5.1 C109,43.6,108.4,42.4,106.8,42.4z" class="st0"/><path d="M120.8,52.3c-0.9,0-1.1-0.9-1.1-1.6c-0.8,0.9-1.7,1.6-3.1,1.6c-2,0-4.1-1.1-4.1-5.1c0-3.6,2.3-5.9,5.1-5.9 c0.9,0,1.6,0.1,2.1,0.3v-3.1h-2v-0.9c0.7-0.1,2-0.4,2.9-0.4c0.5,0,0.8,0.1,0.8,0.7v8.9l0.1,3.9h2l0.1,0.8 C123.2,51.7,121.9,52.3,120.8,52.3z M119.9,42.8c-0.5-0.1-1.2-0.3-2.3-0.3c-2.5,0-3.1,2-3.1,4.7c0,2.5,1.1,3.3,2.9,3.3 c0.9,0,1.6-0.4,2.4-0.8l0.1-3.1V42.8L119.9,42.8L119.9,42.8z" class="st0"/><path d="M130.6,52.1H125c0-0.3-0.1-0.7,0-0.8l1.2-0.4c0.3-0.1,0.7-0.7,0.7-1.1v-2.9v-4.3h-2v-0.9 c0.7-0.1,2-0.4,2.9-0.4c0.5,0,0.8,0.1,0.8,0.7v4.8v3.6c0,0.3,0.1,0.4,0.3,0.4l1.7,0.3C130.7,51.3,130.7,51.9,130.6,52.1z" class="st0"/><path d="M135.6,52.3c-1.5,0-2.5-0.3-3.5-0.7l0.1-3.1h0.9c0,1.3,0.9,2.7,2.5,2.7c1.2,0,2.3-0.4,2.3-1.5 c0-0.9-0.8-1.3-2.5-2c-1.5-0.5-3.1-1.5-3.1-3.5c0-2.1,1.7-2.9,3.7-2.9c1.1,0,2.1,0.3,3.1,0.7l-0.3,2.7l-0.7-0.1 c-0.1-1.2-1.2-2-2.4-2s-1.9,0.7-1.9,1.3c0,1.2,1.2,1.6,2.4,2.1c1.5,0.7,3.2,1.5,3.2,3.3C139.8,51.6,137.6,52.3,135.6,52.3z" class="st0"/><path d="M148.8,44.1c-0.5-0.5-1.5-1.5-2.5-1.5c-2.1,0-3.1,1.1-3.1,4.1c0,2.4,0.7,4.1,3.6,4.1c0.8,0,2-0.3,2.4-0.4 l0.3,1.1c-0.4,0.3-1.5,0.8-3.2,0.8c-3.9,0-4.9-1.6-4.9-5.6c0-2.8,2-5.5,5.1-5.5c0.9,0,3.2,0,3.2,1.3 C149.8,43.2,149.5,43.7,148.8,44.1z" class="st0"/><path d="M163.8,52.1H159c0-0.3-0.1-0.7,0-0.9l0.8-0.4c0.3-0.1,0.5-0.5,0.5-1.2v-2.8v-1.6c0-1.7-0.3-2.4-2.3-2.4 c-1.2,0-2.9,0.5-3.3,0.9v3.2l0.1,3.5c0,0.5,0,0.5,0.4,0.7l1.9,0.3c0,0.1,0,0.8-0.1,0.9h-5.5c0-0.3-0.1-0.7,0-0.8l0.9-0.4 c0.4-0.1,0.7-0.7,0.7-1.3V47v-8.3h-2v-0.9c0.7-0.1,2-0.4,2.9-0.4c0.5,0,0.8,0.1,0.8,0.7v4.7c0.8-0.5,2.1-1.5,4-1.5 c2.9,0,3.2,1.5,3.2,3.6v2v3.6c0,0.3,0.1,0.4,0.4,0.4l1.5,0.3C163.8,51.2,163.8,51.9,163.8,52.1z" class="st0"/><path d="M184.7,46.9c0.1,3.5,1.7,3.9,3.9,3.9c0.8,0,1.9-0.1,2.7-0.3l0.3,1.1c-0.7,0.4-2.1,0.8-3.5,0.8 c-3.3,0-5.2-0.9-5.2-5.3c0-3.2,1.9-5.7,4.8-5.7c2.9,0,4,2,4,5.1V47L184.7,46.9L184.7,46.9z M187.6,42.4c-1.5,0-2.7,1.2-2.9,3.5 h5.1C189.8,43.6,189.2,42.4,187.6,42.4z" class="st0"/><path d="M205.9,52.1h-4.7c0-0.3-0.1-0.7,0-0.9l0.5-0.4c0.4-0.3,0.5-0.7,0.5-1.1v-2.9v-1.6c0-1.7-0.3-2.4-2.3-2.4 c-1.2,0-2.7,0.5-3.2,0.9v3.2v3.6c0,0.3,0,0.4,0.3,0.5l1.7,0.3c0,0.1,0,0.8-0.1,0.9h-5.2c0-0.3-0.1-0.7,0-0.8l0.9-0.4 c0.4-0.1,0.7-0.8,0.7-1.2v-2.9v-4h-2V42c0.7-0.1,2-0.4,2.9-0.4c0.5,0,0.7,0.1,0.7,0.7v0.4c0.8-0.5,2-1.5,3.9-1.5 c2.9,0,3.2,1.5,3.2,3.6v2l0.1,3.7c0,0.3,0,0.3,0.3,0.3l1.6,0.3C205.9,51.3,205.9,51.9,205.9,52.1z" class="st0"/><path d="M213.7,52c-0.5,0.3-1.6,0.4-2.3,0.4c-2.5,0-3.6-0.7-3.5-3.1v-6.5h-1.6v-0.7l3.1-2.8h0.3v2.1h3.6v1.3h-3.6v4.1 v2.4c0,1.5,0.7,1.7,2,1.7c0.5,0,1.2-0.1,1.7-0.3L213.7,52z" class="st0"/><path d="M222.5,43.2c-0.3-0.1-0.7-0.3-1.2-0.3c-1.3,0-2.3,0.3-2.8,0.8v2.9l0.1,3.6c0,0.3,0,0.5,0.3,0.5l2,0.3 c0,0.1,0,0.8-0.1,0.9h-5.6c0-0.3-0.1-0.7-0.1-0.8l0.9-0.5c0.3-0.1,0.7-0.7,0.7-1.5v-2.5v-4h-2v-0.9c0.7-0.1,2-0.4,2.9-0.4 c0.5,0,0.8,0.1,0.8,0.7v0.8c0.5-0.8,1.7-1.6,3.1-1.6c0.7,0,1.1,0.1,1.3,0.1L222.5,43.2z" class="st0"/><path d="M235.8,51.5c-0.4,0.3-1.6,0.8-2.7,0.8c-0.7,0-1.3-0.3-1.5-1.5c-0.8,0.8-1.7,1.6-3.6,1.6 c-2.8,0-3.1-1.3-3.1-3.2v-6.5h-1.7v-0.9c0.7-0.1,1.9-0.4,2.8-0.4c0.5,0,0.8,0.1,0.8,0.7v4.7v1.9c0,1.2,0.1,2.3,1.7,2.3 c1.1,0,2.1-0.7,3.1-1.5l0.1-2.7v-4h-2v-0.9c0.7-0.1,2-0.4,2.9-0.4c0.5,0,0.8,0.1,0.8,0.7v4.7v3.9h2.1L235.8,51.5z" class="st0"/><path d="M255.9,52.1h-4.8c-0.1-0.3-0.1-0.7-0.1-0.9l0.7-0.4c0.3-0.1,0.5-0.5,0.5-1.1v-2.9v-1.6c0-1.7-0.1-2.4-2.1-2.4 c-1.1,0-2.4,0.4-3.1,0.8c0,0.4,0,0.8,0,1.3v2v3.6c0,0.3,0.1,0.4,0.3,0.4l1.7,0.3c0,0.1,0,0.8-0.1,1.1H244c0-0.3-0.1-0.7-0.1-0.9 l0.7-0.4c0.3-0.1,0.4-0.5,0.5-0.8V47v-1.6c0-1.7-0.1-2.4-2.1-2.4c-1.2,0-2.5,0.5-3.1,0.9v3.2l0.1,3.5c0,0.3,0,0.5,0.3,0.5l1.6,0.3 c0,0.1,0,0.8-0.1,1.1h-5.1c-0.1-0.3-0.1-0.7-0.1-0.8l0.8-0.4c0.4-0.1,0.8-0.5,0.8-1.2v-2.9v-4h-2v-0.9c0.7-0.1,2-0.4,2.9-0.4 c0.5,0,0.8,0.1,0.8,0.7v0.3c0.8-0.5,1.9-1.5,3.7-1.5c1.7,0,2.5,0.5,2.8,1.3c0.8-0.5,2-1.3,3.9-1.3c2.9,0,3.2,1.5,3.2,3.6v2 l0.1,3.6c0,0.4,0,0.4,0.4,0.4l1.5,0.3C256.1,51.3,256.1,51.9,255.9,52.1z" class="st0"/><circle cx="127.6" cy="38" r="1.2" class="st0"/><path d="M99.8,50.8c-0.3-0.1-0.7-0.5-0.7-0.9L97.9,41c-0.1-0.8,0.3-1.3,0.7-1.6l0.9-0.3c0-0.3,0-0.5-0.1-0.8h-3.7 L92,47.9h-0.1l-3.6-9.5h-3.9c0,0.3-0.1,0.7-0.1,0.8l1.2,0.4c0.4,0.1,0.7,0.7,0.5,1.1l-1.3,8.7c-0.1,0.7-0.5,1.2-1.1,1.5L83,51.2 c0,0.3,0,0.5,0.1,0.8h5.1c0.1-0.3,0.1-0.8,0.1-0.9l-2-0.4C86,50.7,86,50.4,86,50l1.2-7.9v-0.9h0.1l3.6,9.9l1.3-0.4l3.7-9.3H96v1.1 l0.8,6.5c0,0.3,0,0.5,0,0.8c0,0.7-0.1,1.2-0.8,1.5l-0.8,0.3c0,0.3,0,0.5,0.1,0.8h5.1c0-0.3,0.1-0.7,0.1-0.9L99.8,50.8z" class="st0"/></g><path d="M93.6,26.9h-9.9c0-0.3-0.1-0.7-0.1-0.9l1.2-0.4c0.5-0.1,0.7-0.7,0.7-1.1v-2.9v-6c0-0.5-0.1-1.1-0.5-1.2 L83.8,14c0-0.1,0-0.5,0.1-0.8H89c0,0.3,0.1,0.7,0.1,0.8l-0.9,0.3c-0.5,0.1-0.8,0.1-0.8,0.8v6.5l0.1,4l3.2-0.1c1.2,0,2-0.9,2.4-1.9 l0.9,0.1L93.6,26.9z" class="st0"/><path d="M96.8,21.7c0.1,3.5,1.7,3.9,3.9,3.9c0.8,0,1.9-0.1,2.7-0.3l0.3,1.1c-0.7,0.4-2.1,0.8-3.5,0.8 c-3.3,0-5.2-0.9-5.2-5.3c0-3.2,1.9-5.7,4.8-5.7s4,2,4,5.1v0.5C103.8,21.7,96.8,21.7,96.8,21.7z M99.8,17.2c-1.5,0-2.7,1.2-2.8,3.3 h5.1C101.9,18.4,101.4,17.2,99.8,17.2z" class="st0"/><path d="M105.6,26.1l1.2-0.4c0.3-0.1,0.7-0.7,0.7-1.1v-2.9v-4h-2v-0.9c0.7-0.1,2-0.4,2.9-0.4c0.5,0,0.8,0.1,0.8,0.7 v4.8v3.6c0,0.3,0.1,0.4,0.3,0.4l1.7,0.3c0,0.1,0,0.8-0.1,0.9h-5.5C105.6,26.7,105.6,26.4,105.6,26.1z" class="st0"/><path d="M120.8,27.1c-0.9,0-1.1-0.9-1.1-1.6c-0.8,0.9-1.7,1.6-3.1,1.6c-2,0-4.1-1.1-4.1-5.1c0-3.6,2.3-5.9,4.9-5.9 c0.9,0,1.6,0.1,2.1,0.3v-3.1h-2v-0.8c0.7-0.1,2-0.4,2.9-0.4c0.5,0,0.8,0.1,0.8,0.7v8.8l0.1,3.9h2l0.1,0.8 C123.2,26.5,121.9,27.1,120.8,27.1z M119.9,17.7c-0.5-0.1-1.2-0.3-2.3-0.3c-2.5,0-3.1,2-3.1,4.7c0,2.5,1.1,3.3,2.9,3.3 c0.9,0,1.6-0.4,2.4-0.8l0.1-2.9V17.7C119.9,17.7,119.9,17.7,119.9,17.7z" class="st0"/><path d="M128.4,27.1c-1.5,0-2.5-0.3-3.5-0.7l0.1-3.1h0.9c0,1.3,0.9,2.5,2.5,2.5c1.2,0,2.3-0.4,2.3-1.5 c0-0.9-0.8-1.3-2.5-2c-1.5-0.5-3.1-1.5-3.1-3.5S127,16,129,16c1.1,0,2.1,0.3,3.1,0.7l-0.3,2.5l-0.7-0.1c-0.1-1.2-1.2-2-2.4-2 s-1.9,0.7-1.9,1.3c0,1.2,1.2,1.6,2.4,2.1c1.5,0.7,3.2,1.5,3.2,3.3C132.4,26.4,130.4,27.1,128.4,27.1z" class="st0"/><path d="M152,14.3c-0.3,0.1-0.5,0.1-0.5,0.8v6.7c0,4-2.9,5.5-5.5,5.5c-2.7,0-5.5-0.9-5.5-4.9v-6.9 c0-0.4-0.3-0.9-0.5-1.1l-1.2-0.4c0-0.1,0-0.5,0.1-0.8h5.2c0,0.3,0,0.7,0,0.9l-1.1,0.3c-0.4,0.1-0.5,0.3-0.5,0.7v7.2 c0,2.8,1.9,3.7,3.6,3.7c2.1,0,3.6-1.1,3.6-4.1v-6.1c0-0.7-0.1-1.1-1.1-1.3l-0.8-0.3c0-0.1,0-0.5,0-0.8h5.1c0,0.3,0,0.5,0,0.8 L152,14.3z" class="st0"/><path d="M166.6,26.9h-4.7c0-0.3-0.1-0.7,0-0.9l0.5-0.4c0.4-0.3,0.5-0.7,0.5-1.1v-2.9V20c0-1.7-0.3-2.4-2.1-2.4 c-1.2,0-2.7,0.5-3.2,0.9v3.2v3.6c0,0.3,0,0.4,0.3,0.5l1.7,0.3c0,0.1,0,0.8-0.1,0.9h-5.2c0-0.3-0.1-0.7,0-0.8l0.9-0.4 c0.4-0.1,0.7-0.8,0.7-1.1v-2.9v-4h-2v-0.9c0.7-0.1,2-0.4,2.9-0.4c0.5,0,0.7,0.1,0.7,0.7v0.5c0.8-0.5,2-1.5,3.9-1.5 c2.9,0,3.2,1.5,3.2,3.6v2l0.1,3.7c0,0.3,0,0.3,0.3,0.3l1.6,0.3C166.7,26.1,166.7,26.7,166.6,26.9z" class="st0"/><path d="M168,26.1l1.2-0.4c0.3-0.1,0.7-0.7,0.7-1.1v-2.9v-4h-2v-0.9c0.7-0.1,2-0.4,2.9-0.4c0.5,0,0.8,0.1,0.8,0.7v4.8 v3.6c0,0.3,0.1,0.4,0.3,0.4l1.7,0.3c0,0.1,0,0.8-0.1,0.9H168C168,26.7,168,26.4,168,26.1z" class="st0"/><path d="M175.4,18.4c-0.1-0.4-0.7-0.9-1.1-1.2c0-0.3,0-0.7,0-0.9h4.3c0,0.3,0,0.8-0.1,1.1h-1.3l2.5,7.6l2.4-6.1 c0.1-0.1,0.1-0.4,0.1-0.5c0-0.4-0.1-0.7-0.5-0.8l-0.5-0.3c0-0.3,0-0.7,0.1-0.9h3.5c0,0.3,0,0.7,0,0.8c-0.3,0.3-0.8,0.5-1.2,1.6 l-3.3,8.3l-1.3,0.4L175.4,18.4z" class="st0"/><path d="M187.1,21.7c0.1,3.5,1.7,3.9,3.9,3.9c0.8,0,1.9-0.1,2.7-0.3l0.3,1.1c-0.7,0.4-2.1,0.8-3.5,0.8 c-3.3,0-5.2-0.9-5.2-5.3c0-3.2,1.9-5.7,4.8-5.7s4,2,4,5.1v0.5C194,21.7,187.1,21.7,187.1,21.7z M189.9,17.2c-1.5,0-2.7,1.2-2.8,3.3 h5.1C192.2,18.4,191.6,17.2,189.9,17.2z" class="st0"/><path d="M203.3,18c-0.3-0.1-0.7-0.3-1.2-0.3c-1.3,0-2.3,0.3-2.8,0.8v2.9l0.1,3.5c0,0.3,0,0.5,0.3,0.5l2,0.3 c0,0.1,0,0.8-0.1,0.9H196c0-0.3-0.1-0.7-0.1-0.8l0.9-0.5c0.3-0.1,0.7-0.7,0.7-1.5v-2.5v-4h-2v-0.9c0.7-0.1,2-0.4,2.9-0.4 c0.5,0,0.8,0.1,0.8,0.7v0.8c0.5-0.8,1.7-1.6,3.1-1.6c0.7,0,1.1,0.1,1.3,0.1L203.3,18z" class="st0"/><path d="M208.1,27.1c-1.5,0-2.5-0.3-3.5-0.7l0.1-3.1h0.9c0,1.3,0.9,2.5,2.5,2.5c1.2,0,2.3-0.4,2.3-1.5 c0-0.9-0.8-1.3-2.5-2c-1.5-0.5-3.1-1.5-3.1-3.5s1.7-2.9,3.7-2.9c1.1,0,2.1,0.3,3.1,0.7l-0.3,2.5l-0.7-0.1c-0.1-1.2-1.2-2-2.4-2 s-1.9,0.7-1.9,1.3c0,1.2,1.2,1.6,2.4,2.1c1.5,0.7,3.2,1.5,3.2,3.3C212.1,26.4,210.1,27.1,208.1,27.1z" class="st0"/><path d="M213.9,26.1l1.2-0.4c0.3-0.1,0.7-0.7,0.7-1.1v-2.9v-4h-2v-0.9c0.7-0.1,2-0.4,2.9-0.4c0.5,0,0.8,0.1,0.8,0.7 v4.8v3.6c0,0.3,0.1,0.4,0.3,0.4l1.7,0.3c0,0.1,0,0.8-0.1,0.9h-5.5C213.9,26.7,213.9,26.4,213.9,26.1z" class="st0"/><path d="M228.2,26.8c-0.5,0.3-1.6,0.4-2.3,0.4c-2.5,0-3.5-0.7-3.5-3.1v-6.4h-1.6V17l3.1-2.8h0.3v2.1h3.6v1.3h-3.6v4V24 c0,1.5,0.7,1.7,2,1.7c0.5,0,1.2-0.1,1.7-0.3L228.2,26.8z" class="st0"/><path d="M236.9,27.1c-1.3,0-1.5-0.9-1.5-1.6c-0.4,0.4-1.7,1.7-3.7,1.7c-1.5,0-2.5-0.8-2.5-2.5c0-2.1,1.9-3.1,3.7-3.3 c1.2-0.1,2.5-0.3,2.5-0.3v-1.6c0-1.6-0.8-2-2.7-2c-0.8,0-1.9,0.1-2.5,0.4l-0.3-1.1c1.1-0.4,2.3-0.7,3.3-0.7c1.5,0,3.9,0,3.9,2.8 v2.7l0.1,3.9h2.1l0.1,0.8C239.1,26.5,237.5,27.1,236.9,27.1z M235.4,22c0,0-1.5,0.1-2.4,0.4c-1.3,0.3-2,0.9-2,1.9 c0,0.5,0.4,1.2,1.5,1.2c1.2,0,2.9-0.9,2.9-0.9V22z" class="st0"/><path d="M240.5,26.1l1.2-0.4c0.3-0.1,0.7-0.7,0.7-1.1v-2.9v-4h-2v-0.9c0.7-0.1,2-0.4,2.9-0.4c0.5,0,0.8,0.1,0.8,0.7 v4.8v3.6c0,0.3,0.1,0.4,0.3,0.4l1.7,0.3c0,0.1,0,0.8-0.1,0.9h-5.5C240.6,26.7,240.5,26.4,240.5,26.1z" class="st0"/><path d="M255.1,18c-0.3-0.1-0.7-0.3-1.2-0.3c-1.3,0-2.3,0.3-2.8,0.8v2.9l0.1,3.5c0,0.3,0,0.5,0.3,0.5l2,0.3 c0,0.1,0,0.8-0.1,0.9h-5.6c0-0.3-0.1-0.7-0.1-0.8l0.9-0.5c0.3-0.1,0.7-0.7,0.7-1.5v-2.5v-4h-2v-0.9c0.7-0.1,2-0.4,2.9-0.4 c0.5,0,0.8,0.1,0.8,0.7v0.8c0.5-0.8,1.7-1.6,3.1-1.6c0.7,0,1.1,0.1,1.3,0.1L255.1,18z" class="st0"/><circle cx="108.3" cy="13.1" r="1.3" class="st0"/><circle cx="170.7" cy="13.1" r="1.3" class="st0"/><circle cx="216.6" cy="13.1" r="1.3" class="st0"/><circle cx="243.3" cy="13.1" r="1.3" class="st0"/></g></svg>